<!DOCTYPE svg PUBLIC "-//W3C//DTD SVG 20010904//EN" "http://www.w3.org/TR/2001/REC-SVG-20010904/DTD/svg10.dtd">
<svg version="1.0" xmlns="http://www.w3.org/2000/svg" width="1200px" height="217px" viewBox="0 0 12000 2170" preserveAspectRatio="xMidYMid meet">
<g id="layer101" fill="#ffffff" stroke="none">
 <path d="M1202 2151 c2 -5 219 -489 483 -1075 l479 -1066 1548 0 1547 0 -37 83 c-20 45 -237 529 -482 1075 l-445 992 -1548 0 c-904 0 -1547 -4 -1545 -9z"/>
 <path d="M5643 2143 c4 -15 313 -704 879 -1963 l75 -165 1546 -3 c851 -1 1547 0 1547 4 0 3 -125 283 -277 622 -152 339 -367 820 -478 1067 l-202 450 -1548 3 c-1471 2 -1547 1 -1542 -15z"/>
 <path d="M10033 2148 c3 -7 197 -440 432 -963 235 -522 449 -1001 477 -1063 l51 -112 498 0 499 0 0 1075 0 1075 -981 0 c-781 0 -980 -3 -976 -12z"/>
 <path d="M11 958 l-1 -948 425 0 c234 0 425 3 425 6 0 6 -760 1702 -815 1819 l-33 70 -1 -947z"/>
 </g>

</svg>