<!DOCTYPE svg PUBLIC "-//W3C//DTD SVG 20010904//EN" "http://www.w3.org/TR/2001/REC-SVG-20010904/DTD/svg10.dtd">
<svg version="1.0" xmlns="http://www.w3.org/2000/svg" width="1200px" height="675px" viewBox="0 0 12000 6750" preserveAspectRatio="xMidYMid meet">
<g id="layer101" fill="#ffffff" stroke="none">
 <path d="M3675 6397 c-159 -101 -450 -283 -645 -406 -195 -123 -360 -229 -367 -235 -11 -10 70 -204 211 -511 8 -16 74 -163 146 -325 73 -162 140 -313 150 -335 10 -22 49 -110 88 -195 38 -85 109 -243 157 -350 48 -107 95 -213 105 -235 10 -22 77 -173 150 -335 73 -162 140 -313 150 -335 10 -22 49 -110 88 -195 38 -85 109 -243 157 -350 48 -107 95 -213 105 -235 10 -22 77 -173 150 -335 73 -162 140 -313 150 -335 10 -22 49 -110 88 -195 38 -85 109 -243 157 -350 48 -107 95 -213 105 -235 10 -22 77 -173 150 -335 72 -162 138 -308 145 -325 8 -16 34 -75 59 -130 25 -55 49 -101 54 -103 4 -1 73 39 153 89 79 51 344 218 589 372 580 365 570 359 570 370 0 9 -86 204 -180 412 -15 33 -37 81 -49 107 -11 26 -69 154 -127 285 -58 131 -116 261 -129 288 -49 109 -68 150 -195 435 -72 162 -142 318 -155 345 -12 28 -32 71 -44 97 -11 26 -69 154 -127 285 -58 131 -116 261 -129 288 -49 109 -68 150 -195 435 -72 162 -142 318 -155 345 -12 28 -32 71 -44 97 -11 26 -69 154 -127 285 -58 131 -116 261 -129 288 -49 109 -68 150 -195 435 -129 290 -150 334 -195 435 -13 28 -71 158 -130 290 -59 132 -118 265 -132 295 -13 30 -31 69 -38 85 -66 145 -94 205 -97 205 -2 0 -133 -82 -293 -183z"/>
 <path d="M6385 6567 c-11 -6 -225 -139 -475 -297 -250 -157 -537 -338 -637 -401 -100 -63 -182 -119 -183 -125 0 -9 36 -91 135 -309 23 -52 105 -234 192 -430 47 -104 95 -212 108 -240 39 -87 61 -135 155 -345 50 -113 118 -263 150 -335 32 -71 100 -222 150 -335 51 -113 121 -270 157 -350 85 -190 86 -192 193 -430 50 -113 118 -263 150 -335 55 -122 221 -492 260 -580 82 -184 114 -256 130 -290 10 -22 59 -132 110 -245 50 -113 121 -270 157 -350 77 -171 75 -167 193 -430 50 -113 108 -241 127 -285 20 -44 50 -111 68 -150 17 -38 53 -120 81 -182 27 -62 53 -113 57 -113 7 0 335 205 1007 630 168 106 306 194 308 195 3 3 -96 231 -176 405 -13 30 -36 80 -49 110 -14 30 -33 73 -43 95 -10 22 -48 108 -85 190 -37 83 -84 188 -105 235 -21 47 -48 108 -60 135 -13 28 -35 77 -50 110 -61 133 -80 177 -155 345 -42 96 -89 200 -103 230 -13 30 -36 80 -49 110 -14 30 -33 73 -43 95 -10 22 -48 108 -85 190 -37 83 -84 188 -105 235 -21 47 -48 108 -60 135 -13 28 -35 77 -50 110 -61 133 -80 177 -155 345 -42 96 -89 200 -103 230 -13 30 -36 80 -49 110 -14 30 -33 73 -43 95 -10 22 -48 108 -85 190 -37 83 -84 188 -105 235 -21 47 -48 108 -60 135 -13 28 -35 77 -50 110 -61 133 -80 177 -155 345 -42 96 -89 200 -103 230 -13 30 -36 80 -49 110 -14 30 -33 73 -43 95 -10 22 -48 108 -85 190 -37 83 -84 188 -105 235 -21 47 -48 108 -60 135 -13 28 -38 83 -56 123 -19 41 -34 77 -34 82 0 16 -15 19 -35 7z"/>
 <path d="M8480 6369 c-184 -116 -474 -299 -645 -406 -170 -107 -316 -201 -323 -207 -13 -13 -12 -15 108 -281 10 -22 77 -173 150 -335 73 -162 140 -313 150 -335 10 -22 49 -110 88 -195 38 -85 109 -243 157 -350 48 -107 95 -213 105 -235 10 -22 77 -173 150 -335 127 -284 146 -326 195 -435 13 -27 83 -183 155 -345 73 -162 140 -313 150 -335 10 -22 59 -132 110 -245 50 -113 104 -232 120 -265 l29 -60 1 1888 0 1888 -21 47 c-12 26 -34 74 -49 107 -15 33 -73 164 -130 290 -128 287 -159 355 -163 355 -1 0 -153 -95 -337 -211z"/>
 <path d="M2600 2357 l0 -1884 76 -169 c117 -260 133 -294 139 -294 8 0 1297 810 1314 826 3 3 -37 98 -119 279 -78 171 -56 122 -225 500 -59 132 -117 263 -130 290 -12 28 -32 70 -43 95 -11 25 -79 178 -152 340 -73 162 -140 313 -150 335 -21 46 -28 62 -175 390 -59 132 -117 263 -130 290 -12 28 -32 70 -43 95 -11 25 -79 178 -152 340 -72 162 -145 323 -161 358 -16 35 -29 67 -29 72 0 5 -4 12 -10 15 -7 4 -10 -624 -10 -1878z"/>
 </g>

</svg>