<!DOCTYPE svg PUBLIC "-//W3C//DTD SVG 20010904//EN" "http://www.w3.org/TR/2001/REC-SVG-20010904/DTD/svg10.dtd">
<svg version="1.0" xmlns="http://www.w3.org/2000/svg" width="1200px" height="181px" viewBox="0 0 12000 1810" preserveAspectRatio="xMidYMid meet">
<g id="layer101" fill="#ec1c24" stroke="none">
<path d="M1308 688 c-25 -19 -39 -64 -29 -91 11 -29 29 -44 63 -52 22 -6 33 -1 59 24 26 27 30 37 25 64 -4 17 -12 38 -19 45 -20 19 -79 26 -99 10z m76 -34 c22 -22 20 -50 -6 -68 -31 -22 -45 -20 -64 9 -15 23 -15 27 0 50 19 29 47 32 70 9z"/>
</g>
<g id="layer102" fill="#ffffff" stroke="none">
<path d="M4190 1804 c-395 -73 -663 -311 -761 -674 -33 -120 -33 -331 -2 -441 36 -126 62 -184 115 -266 174 -267 448 -416 763 -416 350 0 647 187 809 509 72 145 104 362 76 531 -57 356 -316 638 -675 735 -68 18 -271 32 -325 22z m314 -134 c227 -58 435 -239 526 -457 87 -209 80 -456 -20 -655 -152 -304 -453 -469 -799 -437 -263 24 -508 200 -625 449 -57 120 -71 187 -70 335 0 153 15 218 79 350 113 233 331 393 595 435 78 12 224 3 314 -20z"/>
<path d="M4140 911 l0 -418 38 -7 c74 -12 267 -6 320 9 106 32 166 114 166 230 1 169 -116 267 -321 269 l-93 1 0 168 0 167 -55 0 -55 0 0 -419z m285 -12 c57 -16 95 -46 116 -93 24 -53 24 -100 -1 -151 -34 -70 -134 -107 -244 -91 l-46 7 0 164 c0 121 3 165 13 168 23 10 122 7 162 -4z"/>
<path d="M10200 1802 c0 -11 889 -1792 894 -1792 5 0 896 1786 896 1796 0 2 -403 4 -895 4 -492 0 -895 -3 -895 -8z m1619 -109 c0 -5 -163 -334 -363 -732 l-363 -724 -361 725 c-199 399 -362 728 -362 732 0 3 326 6 725 6 399 0 725 -3 724 -7z"/>
<path d="M10901 1487 c-50 -25 -66 -62 -66 -150 0 -72 4 -91 32 -151 37 -78 99 -156 146 -185 40 -25 107 -40 142 -33 71 13 84 145 30 307 -4 12 1 8 14 -10 23 -34 75 -159 91 -222 6 -23 17 -49 25 -57 17 -17 55 -10 55 10 0 46 -113 258 -171 320 -22 24 -25 72 -6 99 14 18 37 18 80 0 26 -11 22 21 -8 50 -48 48 -135 22 -135 -41 0 -26 0 -26 -45 14 -27 23 -63 44 -90 51 -55 14 -64 14 -94 -2z m147 -61 c50 -26 78 -69 107 -161 36 -117 44 -205 21 -240 -45 -69 -164 12 -238 163 -27 54 -32 76 -32 137 -1 58 3 77 18 94 23 25 83 28 124 7z"/>
<path d="M297 1743 c-15 -14 -7 -63 12 -73 27 -14 1195 -14 1222 0 21 12 25 50 7 68 -9 9 -161 12 -623 12 -337 0 -615 -3 -618 -7z"/>
<path d="M7600 1425 l-165 -165 -317 0 -318 0 0 -355 0 -355 317 0 318 0 167 -167 168 -168 0 688 c0 378 -1 687 -3 687 -1 0 -76 -74 -167 -165z m80 -522 l0 -458 -103 103 -102 102 -293 0 -292 0 0 255 0 255 293 0 292 0 100 100 c55 55 101 100 102 100 2 0 3 -206 3 -457z"/>
<path d="M8440 1572 l-23 -19 26 -94 c47 -166 61 -283 61 -524 0 -237 -14 -379 -59 -579 -28 -126 -24 -149 28 -144 29 3 34 8 49 53 27 81 67 342 79 514 7 115 8 200 0 305 -17 231 -72 475 -111 496 -24 13 -24 13 -50 -8z"/>
<path d="M297 1573 c-15 -14 -7 -63 12 -73 27 -14 1195 -14 1222 0 21 12 25 50 7 68 -9 9 -161 12 -623 12 -337 0 -615 -3 -618 -7z"/>
<path d="M281 1336 c-10 -12 -29 -92 -146 -626 -25 -113 -65 -296 -89 -408 -25 -111 -43 -209 -40 -217 4 -8 18 -18 32 -22 39 -9 55 19 81 150 13 65 26 117 29 117 3 0 29 -22 58 -50 84 -79 134 -70 241 46 l53 57 80 -77 c76 -72 82 -76 126 -76 43 0 49 4 121 75 85 84 78 84 153 2 52 -58 86 -77 136 -77 32 0 46 9 115 77 l79 77 53 -58 c69 -74 103 -96 150 -96 33 0 47 8 96 54 l57 55 27 -126 c14 -70 33 -133 41 -141 17 -17 61 -9 69 11 3 8 -7 72 -23 143 -15 71 -54 246 -85 389 -122 558 -157 710 -167 722 -16 20 -1231 19 -1247 -1z m1216 -228 c18 -84 57 -267 88 -406 l55 -253 -52 -60 c-29 -32 -61 -62 -71 -65 -14 -4 -38 13 -92 65 -69 68 -75 71 -120 71 -45 0 -51 -3 -119 -70 -40 -38 -76 -70 -81 -70 -5 0 -41 31 -81 70 -68 67 -74 70 -119 70 -45 0 -51 -3 -119 -70 -40 -38 -78 -70 -84 -70 -6 0 -42 32 -81 70 -65 66 -72 70 -114 70 -50 0 -72 -14 -144 -92 -25 -26 -54 -48 -63 -48 -10 0 -43 29 -74 64 l-56 64 70 318 c74 344 98 449 106 477 5 16 41 17 562 17 l557 0 32 -152z"/>
<path d="M1099 995 c-36 -19 -59 -72 -59 -133 0 -63 12 -96 46 -127 54 -50 159 -25 179 43 9 31 -11 28 -45 -8 -50 -54 -120 -33 -140 41 -21 78 8 151 65 165 30 8 71 -17 87 -52 11 -24 38 -34 38 -14 0 22 -30 68 -54 84 -31 20 -82 20 -117 1z"/>
<path d="M540 855 l0 -145 65 0 c121 0 169 45 131 121 -10 19 -12 36 -7 43 5 6 11 37 13 69 4 50 2 57 -14 57 -15 0 -18 -8 -18 -48 0 -26 -5 -53 -12 -60 -7 -7 -38 -12 -70 -12 l-58 0 0 60 c0 47 -3 60 -15 60 -13 0 -15 -23 -15 -145z m161 -26 c12 -20 11 -53 -3 -67 -7 -7 -38 -12 -70 -12 l-58 0 0 43 c0 24 3 47 8 51 12 13 113 0 123 -15z"/>
<path d="M810 855 l0 -145 95 0 c88 0 95 1 95 20 0 18 -7 20 -80 20 l-80 0 0 45 0 45 76 0 c56 0 75 3 72 13 -3 8 -30 13 -76 15 l-72 3 0 49 0 50 80 0 c64 0 80 3 80 15 0 12 -17 15 -95 15 l-95 0 0 -145z"/>
<path d="M8098 1209 c-24 -13 -23 -29 9 -113 23 -63 27 -85 26 -186 0 -89 -5 -131 -23 -185 -35 -113 -35 -121 -7 -139 33 -23 56 -11 78 40 51 120 64 322 28 454 -33 124 -62 158 -111 129z"/>
</g>


</svg>